<svg width="64" height="64" viewBox="0 0 64 64" fill="none" xmlns="http://www.w3.org/2000/svg">
<g clip-path="url(#clip0_238_3537)">
<path d="M8 50.6667C8 52.0812 8.5619 53.4377 9.5621 54.4379C10.5623 55.4381 11.9188 56 13.3333 56C14.7478 56 16.1044 55.4381 17.1046 54.4379C18.1048 53.4377 18.6667 52.0812 18.6667 50.6667C18.6667 49.2522 18.1048 47.8957 17.1046 46.8955C16.1044 45.8953 14.7478 45.3334 13.3333 45.3334C11.9188 45.3334 10.5623 45.8953 9.5621 46.8955C8.5619 47.8957 8 49.2522 8 50.6667Z" stroke="#F37325" stroke-width="4" stroke-linecap="round" stroke-linejoin="round"/>
<path d="M50.6667 18.6667C52.0812 18.6667 53.4377 18.1048 54.4379 17.1046C55.4381 16.1044 56 14.7478 56 13.3333C56 11.9188 55.4381 10.5623 54.4379 9.5621C53.4377 8.5619 52.0812 8 50.6667 8C49.2522 8 47.8957 8.5619 46.8955 9.5621C45.8953 10.5623 45.3334 11.9188 45.3334 13.3333C45.3334 14.7478 45.8953 16.1044 46.8955 17.1046C47.8957 18.1048 49.2522 18.6667 50.6667 18.6667Z" stroke="#F37325" stroke-width="4" stroke-linecap="round" stroke-linejoin="round"/>
<path d="M29.3334 50.6667H44C46.4754 50.6667 48.8494 49.6834 50.5997 47.933C52.35 46.1827 53.3334 43.8087 53.3334 41.3334C53.3334 38.858 52.35 36.484 50.5997 34.7337C48.8494 32.9834 46.4754 32 44 32H22.6667C20.1914 32 17.8174 31.0167 16.067 29.2664C14.3167 27.516 13.3334 25.1421 13.3334 22.6667C13.3334 20.1914 14.3167 17.8174 16.067 16.067C17.8174 14.3167 20.1914 13.3334 22.6667 13.3334H34.6667" stroke="#F37325" stroke-width="4" stroke-linecap="round" stroke-linejoin="round"/>
</g>
<defs>
<clipPath id="clip0_238_3537">
<rect width="64" height="64" fill="white"/>
</clipPath>
</defs>
</svg>
