<svg width="16" height="16" viewBox="0 0 16 16" fill="none" xmlns="http://www.w3.org/2000/svg">
<path d="M8.66733 13.2922C11.2982 12.9642 13.334 10.7199 13.334 8.00016C13.334 5.05464 10.9462 2.66683 8.00066 2.66683C5.05513 2.66683 2.66732 5.05464 2.66732 8.00016C2.66732 10.7199 4.70311 12.9642 7.334 13.2922V9.3335H6.00065V8.00016H7.334V6.89736C7.334 6.00586 7.4268 5.68258 7.60113 5.35665C7.7754 5.03072 8.0312 4.77494 8.35713 4.60063C8.61226 4.46419 8.92873 4.38184 9.4818 4.34652C9.70126 4.3325 9.9854 4.35038 10.334 4.40016V5.66683H10.0007C9.38913 5.66683 9.1368 5.69571 8.98593 5.77638C8.8924 5.82642 8.82693 5.89188 8.77686 5.98545C8.6962 6.13628 8.66733 6.28585 8.66733 6.89736V8.00016H10.334L10.0007 9.3335H8.66733V13.2922ZM8.00066 14.6668C4.31875 14.6668 1.33398 11.682 1.33398 8.00016C1.33398 4.31826 4.31875 1.3335 8.00066 1.3335C11.6825 1.3335 14.6673 4.31826 14.6673 8.00016C14.6673 11.682 11.6825 14.6668 8.00066 14.6668Z" fill="black"/>
</svg>
