<svg width="22" height="22" viewBox="0 0 22 22" fill="none" xmlns="http://www.w3.org/2000/svg">
<g clip-path="url(#clip0_238_4245)">
<path d="M12.833 2.75V6.41667C12.833 6.65978 12.9296 6.89294 13.1015 7.06485C13.2734 7.23676 13.5066 7.33333 13.7497 7.33333H17.4163" stroke="black" stroke-width="1.83333" stroke-linecap="round" stroke-linejoin="round"/>
<path d="M4.58301 11V4.58333C4.58301 4.0971 4.77616 3.63079 5.11998 3.28697C5.4638 2.94315 5.93011 2.75 6.41634 2.75H12.833L17.4163 7.33333V11" stroke="black" stroke-width="1.83333" stroke-linecap="round" stroke-linejoin="round"/>
<path d="M4.58301 16.5H5.95801C6.32268 16.5 6.67242 16.3551 6.93028 16.0973C7.18814 15.8394 7.33301 15.4897 7.33301 15.125C7.33301 14.7603 7.18814 14.4106 6.93028 14.1527C6.67242 13.8949 6.32268 13.75 5.95801 13.75H4.58301V19.25" stroke="black" stroke-width="1.83333" stroke-linecap="round" stroke-linejoin="round"/>
<path d="M15.583 16.5H17.4163" stroke="black" stroke-width="1.83333" stroke-linecap="round" stroke-linejoin="round"/>
<path d="M18.333 13.75H15.583V19.25" stroke="black" stroke-width="1.83333" stroke-linecap="round" stroke-linejoin="round"/>
<path d="M10.083 13.75V19.25H10.9997C11.4859 19.25 11.9522 19.0568 12.296 18.713C12.6399 18.3692 12.833 17.9029 12.833 17.4167V15.5833C12.833 15.0971 12.6399 14.6308 12.296 14.287C11.9522 13.9432 11.4859 13.75 10.9997 13.75H10.083Z" stroke="black" stroke-width="1.83333" stroke-linecap="round" stroke-linejoin="round"/>
</g>
<defs>
<clipPath id="clip0_238_4245">
<rect width="22" height="22" fill="white"/>
</clipPath>
</defs>
</svg>
