<svg width="20" height="20" viewBox="0 0 20 20" fill="none" xmlns="http://www.w3.org/2000/svg">
<g clip-path="url(#clip0_123_1281)">
<path d="M7.5 9.16669C7.5 9.82973 7.76339 10.4656 8.23223 10.9345C8.70107 11.4033 9.33696 11.6667 10 11.6667C10.663 11.6667 11.2989 11.4033 11.7678 10.9345C12.2366 10.4656 12.5 9.82973 12.5 9.16669C12.5 8.50365 12.2366 7.86776 11.7678 7.39892C11.2989 6.93008 10.663 6.66669 10 6.66669C9.33696 6.66669 8.70107 6.93008 8.23223 7.39892C7.76339 7.86776 7.5 8.50365 7.5 9.16669Z" stroke="#2C4691" stroke-width="1.66667" stroke-linecap="round" stroke-linejoin="round"/>
<path d="M14.7138 13.8811L11.178 17.4169C10.8655 17.7291 10.4418 17.9045 10.0001 17.9045C9.55836 17.9045 9.13469 17.7291 8.82218 17.4169L5.28551 13.8811C4.3532 12.9487 3.71829 11.7608 3.46108 10.4676C3.20388 9.17443 3.33592 7.83401 3.84051 6.61585C4.34511 5.3977 5.19959 4.35653 6.29591 3.624C7.39223 2.89147 8.68115 2.50049 9.99968 2.50049C11.3182 2.50049 12.6071 2.89147 13.7034 3.624C14.7998 4.35653 15.6542 5.3977 16.1588 6.61585C16.6634 7.83401 16.7955 9.17443 16.5383 10.4676C16.2811 11.7608 15.6462 12.9487 14.7138 13.8811Z" stroke="#2C4691" stroke-width="1.66667" stroke-linecap="round" stroke-linejoin="round"/>
</g>
<defs>
<clipPath id="clip0_123_1281">
<rect width="20" height="20" fill="white"/>
</clipPath>
</defs>
</svg>
