<svg width="20" height="20" viewBox="0 0 20 20" fill="none" xmlns="http://www.w3.org/2000/svg">
<g clip-path="url(#clip0_123_1287)">
<path d="M3.33398 5.83317C3.33398 5.39114 3.50958 4.96722 3.82214 4.65466C4.1347 4.3421 4.55862 4.1665 5.00065 4.1665H15.0007C15.4427 4.1665 15.8666 4.3421 16.1792 4.65466C16.4917 4.96722 16.6673 5.39114 16.6673 5.83317V15.8332C16.6673 16.2752 16.4917 16.6991 16.1792 17.0117C15.8666 17.3242 15.4427 17.4998 15.0007 17.4998H5.00065C4.55862 17.4998 4.1347 17.3242 3.82214 17.0117C3.50958 16.6991 3.33398 16.2752 3.33398 15.8332V5.83317Z" stroke="#2C4691" stroke-width="1.66667" stroke-linecap="round" stroke-linejoin="round"/>
<path d="M13.334 2.5V5.83333" stroke="#2C4691" stroke-width="1.66667" stroke-linecap="round" stroke-linejoin="round"/>
<path d="M6.66602 2.5V5.83333" stroke="#2C4691" stroke-width="1.66667" stroke-linecap="round" stroke-linejoin="round"/>
<path d="M3.33398 9.1665H16.6673" stroke="#2C4691" stroke-width="1.66667" stroke-linecap="round" stroke-linejoin="round"/>
<path d="M5.83398 11.6665H5.84596" stroke="#2C4691" stroke-width="1.66667" stroke-linecap="round" stroke-linejoin="round"/>
<path d="M8.3418 11.6666H8.34576" stroke="#2C4691" stroke-width="1.66667" stroke-linecap="round" stroke-linejoin="round"/>
<path d="M10.8418 11.6666H10.8458" stroke="#2C4691" stroke-width="1.66667" stroke-linecap="round" stroke-linejoin="round"/>
<path d="M13.3457 11.6665H13.3497" stroke="#2C4691" stroke-width="1.66667" stroke-linecap="round" stroke-linejoin="round"/>
<path d="M10.8457 14.1665H10.8497" stroke="#2C4691" stroke-width="1.66667" stroke-linecap="round" stroke-linejoin="round"/>
<path d="M5.8418 14.1666H5.84575" stroke="#2C4691" stroke-width="1.66667" stroke-linecap="round" stroke-linejoin="round"/>
<path d="M8.3418 14.1666H8.34576" stroke="#2C4691" stroke-width="1.66667" stroke-linecap="round" stroke-linejoin="round"/>
</g>
<defs>
<clipPath id="clip0_123_1287">
<rect width="20" height="20" fill="white"/>
</clipPath>
</defs>
</svg>
