<svg width="16" height="16" viewBox="0 0 16 16" fill="none" xmlns="http://www.w3.org/2000/svg">
<path d="M13.0713 4.66305C13.0205 4.46447 12.8768 4.31464 12.7123 4.26842C12.4199 4.18692 11.0007 3.99984 8.00066 3.99984C5.00065 3.99984 3.58168 4.18699 3.28816 4.26866C3.12517 4.31399 2.98153 4.46379 2.93006 4.66305C2.85753 4.94599 2.66732 6.13047 2.66732 7.99984C2.66732 9.86917 2.85753 11.0537 2.93026 11.3374C2.98084 11.5352 3.1245 11.685 3.28834 11.731C3.58168 11.8127 5.00065 11.9998 8.00066 11.9998C11.0007 11.9998 12.4199 11.8128 12.7131 11.731C12.8761 11.6857 13.0198 11.5359 13.0713 11.3366C13.1438 11.0537 13.334 9.8665 13.334 7.99984C13.334 6.13317 13.1438 4.94599 13.0713 4.66305ZM14.3628 4.33196C14.6673 5.51984 14.6673 7.99984 14.6673 7.99984C14.6673 7.99984 14.6673 10.4798 14.3628 11.6677C14.1931 12.3247 13.698 12.841 13.0704 13.0156C11.9314 13.3332 8.00066 13.3332 8.00066 13.3332C8.00066 13.3332 4.07224 13.3332 2.93091 13.0156C2.30097 12.8386 1.80586 12.3222 1.63849 11.6677C1.33398 10.4798 1.33398 7.99984 1.33398 7.99984C1.33398 7.99984 1.33398 5.51984 1.63849 4.33196C1.80818 3.67499 2.3033 3.15862 2.93091 2.98408C4.07224 2.6665 8.00066 2.6665 8.00066 2.6665C8.00066 2.6665 11.9314 2.6665 13.0704 2.98408C13.7003 3.16105 14.1955 3.67741 14.3628 4.33196ZM6.66733 10.3332V5.6665L10.6673 7.99984L6.66733 10.3332Z" fill="black"/>
</svg>
